<?xml version="1.0" standalone="no"?>
<!DOCTYPE svg PUBLIC "-//W3C//DTD SVG 20010904//EN"
 "http://www.w3.org/TR/2001/REC-SVG-20010904/DTD/svg10.dtd">
<svg version="1.0" xmlns="http://www.w3.org/2000/svg"
 width="485.000000pt" height="303.000000pt" viewBox="0 0 485.000000 303.000000"
 preserveAspectRatio="xMidYMid meet">

<g transform="translate(0.000000,303.000000) scale(0.100000,-0.100000)"
fill="#000000" stroke="none">
<path d="M1262 1828 c-12 -16 -252 -594 -252 -608 0 -7 20 -10 52 -8 l51 3
127 305 c70 168 126 308 123 313 -7 12 -90 8 -101 -5z"/>
<path d="M1476 1813 c-7 -16 -40 -91 -71 -168 -32 -77 -60 -142 -64 -145 -3
-3 -7 -12 -9 -20 -1 -8 -25 -70 -52 -137 -28 -67 -50 -124 -50 -127 0 -3 22
-6 50 -6 39 0 51 4 60 20 32 59 249 594 244 601 -3 5 -25 9 -49 9 -38 0 -46
-4 -59 -27z"/>
<path d="M1644 1755 c-19 -19 -24 -34 -22 -58 l3 -32 70 -5 70 -5 5 -190 5
-190 65 0 65 0 3 177 c2 150 0 178 -13 192 -15 15 -9 16 70 16 l86 0 -3 58 -3
57 -188 3 -187 2 -26 -25z"/>
<path d="M2205 1762 c-88 -41 -122 -127 -112 -280 8 -109 33 -156 102 -191 40
-21 64 -26 125 -26 103 0 164 30 199 99 22 43 25 60 24 160 0 132 -18 179 -85
223 -36 24 -53 28 -127 31 -68 2 -95 -2 -126 -16z m150 -96 c22 -9 36 -23 39
-38 22 -110 15 -200 -20 -235 -30 -30 -75 -30 -109 0 -24 20 -27 32 -32 102
-6 95 10 153 47 172 32 16 34 16 75 -1z"/>
<path d="M2680 1774 c-50 -21 -50 -22 -50 -271 l0 -233 133 0 c72 0 149 5 170
11 50 14 103 61 118 107 16 47 16 216 1 263 -15 44 -54 83 -106 104 -40 17
-237 31 -266 19z m223 -132 c20 -20 22 -32 22 -123 0 -94 -2 -102 -24 -120
-19 -16 -37 -19 -80 -17 l-56 3 -3 129 c-2 82 -7 135 -15 144 -10 12 -1 14 61
10 58 -3 76 -8 95 -26z"/>
<path d="M3250 1764 c-87 -38 -112 -90 -112 -238 -1 -124 11 -165 58 -210 66
-62 214 -72 301 -21 59 35 83 85 90 188 14 207 -54 297 -227 296 -44 0 -89 -6
-110 -15z m172 -114 c22 -27 32 -97 24 -174 -5 -48 -11 -66 -31 -83 -35 -30
-79 -30 -110 2 -23 22 -25 31 -25 128 0 106 5 123 45 146 27 15 76 5 97 -19z"/>
<path d="M3685 1636 c-18 -19 -25 -36 -25 -66 l0 -40 65 0 66 0 -3 63 -3 62
-37 3 c-29 3 -43 -2 -63 -22z"/>
<path d="M3681 1376 c-17 -18 -22 -33 -19 -62 l3 -39 63 -3 62 -3 0 66 0 65
-43 0 c-33 0 -49 -6 -66 -24z"/>
</g>
</svg>
